HIERARCHY
ROOT Hips
{
 OFFSET 0.000000 0.000000 0.000000
 CHANNELS 6 Xposition Yposition Zposition Yrotation Xrotation Zrotation
 JOINT Chest
 {
  OFFSET 0.000000 10.678932 0.006280
  CHANNELS 3 Yrotation Xrotation Zrotation
  JOINT Chest2
  {
   OFFSET 0.000000 10.491159 -0.011408
   CHANNELS 3 Yrotation Xrotation Zrotation
   JOINT Chest3
   {
    OFFSET 0.000000 9.479342 0.000000
    CHANNELS 3 Yrotation Xrotation Zrotation
    JOINT Chest4
    {
     OFFSET 0.000000 9.479342 0.000000
     CHANNELS 3 Yrotation Xrotation Zrotation
     JOINT Neck
     {
      OFFSET 0.000000 13.535332 0.000000
      CHANNELS 3 Yrotation Xrotation Zrotation
      JOINT Head
      {
       OFFSET 0.000000 8.819083 -0.027129
       CHANNELS 3 Yrotation Xrotation Zrotation
       End Site
       {
        OFFSET 0.000000 16.966594 -0.014170
       }
      }
     }
     JOINT RightCollar
     {
      OFFSET -3.012546 7.545150 0.000000
      CHANNELS 3 Yrotation Xrotation Zrotation
      JOINT RightShoulder
      {
       OFFSET -13.683099 0.000000 0.000000
       CHANNELS 3 Yrotation Xrotation Zrotation
       JOINT RightElbow
       {
        OFFSET -26.359998 0.000000 0.000000
        CHANNELS 3 Yrotation Xrotation Zrotation
        JOINT RightWrist
        {
         OFFSET -21.746691 0.000000 0.008601
         CHANNELS 3 Yrotation Xrotation Zrotation
         End Site
         {
          OFFSET -16.348058 0.000000 0.000000
         }
        }
       }
      }
     }
     JOINT LeftCollar
     {
      OFFSET 3.012546 7.545150 0.000000
      CHANNELS 3 Yrotation Xrotation Zrotation
      JOINT LeftShoulder
      {
       OFFSET 13.683099 0.000000 0.000000
       CHANNELS 3 Yrotation Xrotation Zrotation
       JOINT LeftElbow
       {
        OFFSET 26.359998 0.000000 0.000000
        CHANNELS 3 Yrotation Xrotation Zrotation
        JOINT LeftWrist
        {
         OFFSET 21.746691 0.000000 0.008601
         CHANNELS 3 Yrotation Xrotation Zrotation
         End Site
         {
          OFFSET 16.348058 0.000000 0.000000
         }
        }
       }
      }
     }
    }
   }
  }
 }
 JOINT RightHip
 {
  OFFSET -8.622479 -0.030774 -0.003140
  CHANNELS 3 Yrotation Xrotation Zrotation
  JOINT RightKnee
  {
   OFFSET 0.000000 -37.209160 -0.002630
   CHANNELS 3 Yrotation Xrotation Zrotation
   JOINT RightAnkle
   {
    OFFSET 0.000000 -37.343279 -0.058479
    CHANNELS 3 Yrotation Xrotation Zrotation
    JOINT RightToe
    {
     OFFSET 0.000000 -8.903465 15.088070
     CHANNELS 3 Yrotation Xrotation Zrotation
     End Site
     {
      OFFSET 0.000000 -1.471739 6.884388
     }
    }
   }
  }
 }
 JOINT LeftHip
 {
  OFFSET 8.622479 -0.030774 -0.003140
  CHANNELS 3 Yrotation Xrotation Zrotation
  JOINT LeftKnee
  {
   OFFSET 0.000000 -37.209160 -0.002630
   CHANNELS 3 Yrotation Xrotation Zrotation
   JOINT LeftAnkle
   {
    OFFSET 0.000000 -37.343279 -0.058479
    CHANNELS 3 Yrotation Xrotation Zrotation
    JOINT LeftToe
    {
     OFFSET 0.000000 -8.903465 15.088070
     CHANNELS 3 Yrotation Xrotation Zrotation
     End Site
     {
      OFFSET 0.000000 -1.471739 6.884388
     }
    }
   }
  }
 }
}
MOTION
Frames: 7
Frame Time: 0.025000
0.000000 83.315683 0.000000 0.000000 -5.826342 0.000000 0.000000 11.116423 0.000000 0.000000 -5.290081 0.000000 0.000000 0.000000 0.000000 0.000000 0.000000 0.000000 0.000000 12.665069 0.000000 0.000000 0.575450 0.000000 0.000000 0.000000 0.000000 0.000000 0.000000 0.000000 2.337306 0.000000 0.000000 -2.337306 0.000000 0.000000 0.000000 0.000000 0.000000 0.000000 0.000000 0.000000 -2.337306 0.000000 0.000000 2.337306 0.000000 0.000000 0.000000 8.578828 0.000000 0.000000 1.905768 0.000000 0.000000 -4.658254 0.000000 0.000000 0.000000 0.000000 0.000000 8.578828 0.000000 0.000000 1.905768 0.000000 0.000000 -4.658254 0.000000 0.000000 0.000000 0.000000
120.611617 84.645242 -59.202680 -147.552099 -7.425169 -0.570285 -0.445224 3.517298 0.585617 -0.013175 0.093004 0.020005 -0.021972 0.155236 0.033379 -0.453867 3.347398 0.706772 0.926818 15.644031 -0.638674 1.965217 -7.115296 -1.533975 -1.488934 1.210385 9.760419 -5.051458 -1.627318 80.299490 -0.125600 0.942464 -0.690048 13.497938 20.531135 -16.230165 -0.784788 0.754685 -11.058833 9.473191 -1.675091 -79.196973 -4.962631 5.669352 -1.909171 -4.435306 -0.278913 4.549291 2.965739 13.557057 1.184164 -3.108944 0.684367 0.306397 7.662774 -6.494425 -1.352563 0.046448 -0.152965 0.037514 7.311738 10.730563 -1.573410 1.396933 1.901209 0.403706 9.362295 -6.417914 0.612756 -0.036899 0.177796 -0.034836
120.678121 84.651687 -59.194399 -147.506022 -7.462110 -0.569158 -0.488743 3.562804 0.583864 -0.014501 0.095489 0.020345 -0.024170 0.159293 0.033925 -0.493880 3.388037 0.707242 0.919407 15.606499 -0.651097 1.956741 -7.184867 -1.555224 -1.456333 1.192067 9.756833 -5.054501 -1.619518 80.309298 -0.152933 0.896054 -0.722100 13.488571 20.600959 -16.210301 -0.698878 0.745603 -11.090837 9.338571 -1.653109 -79.234036 -4.909679 5.560484 -1.872369 -4.439590 -0.300982 4.525873 3.155360 13.460397 1.275183 -3.282938 0.877643 0.298813 7.622840 -6.551687 -1.411130 0.037362 -0.157908 0.035422 7.218009 10.674070 -1.545654 1.318318 2.010771 0.381372 9.389637 -6.448040 0.619289 -0.029793 0.182589 -0.037741
120.740803 84.658200 -59.182276 -147.408412 -7.489678 -0.570075 -0.518075 3.595373 0.573434 -0.015503 0.097332 0.020458 -0.025831 0.162299 0.034098 -0.523744 3.418129 0.702834 0.902443 15.586727 -0.649777 1.924997 -7.221980 -1.546910 -1.438189 1.188615 9.766568 -5.105315 -1.597099 80.313063 -0.140017 0.881672 -0.743215 13.463408 20.634519 -16.212866 -0.653417 0.738265 -11.114349 9.186852 -1.635397 -79.260550 -4.812216 5.453366 -1.828350 -4.436884 -0.307309 4.544452 3.372355 13.377239 1.376308 -3.476375 1.029312 0.281750 7.550515 -6.591317 -1.446523 0.027853 -0.163928 0.026006 7.136198 10.612859 -1.516135 1.249424 2.103110 0.368929 9.392654 -6.459011 0.607637 -0.023213 0.182013 -0.029409
120.799861 84.664104 -59.172744 -147.323895 -7.521838 -0.579061 -0.559775 3.625837 0.569654 -0.016909 0.099103 0.020695 -0.028164 0.165183 0.034477 -0.566899 3.445050 0.702370 0.876714 15.580687 -0.644998 1.875329 -7.233859 -1.528598 -1.401121 1.203428 9.758625 -5.148687 -1.569239 80.323240 -0.114221 0.865790 -0.768104 13.472799 20.723433 -16.197848 -0.557904 0.742145 -11.130386 8.907855 -1.603164 -79.287097 -4.719270 5.277682 -1.776756 -4.420167 -0.316414 4.533049 3.556636 13.327297 1.461462 -3.714153 1.130375 0.292961 7.570624 -6.610630 -1.485659 0.023181 -0.170304 0.014978 7.009806 10.545428 -1.482904 1.162983 2.221845 0.348056 9.500023 -6.486047 0.581826 -0.014232 0.180244 -0.017045
120.852120 84.666724 -59.167484 -147.201085 -7.533119 -0.571167 -0.563256 3.647793 0.544359 -0.017210 0.100250 0.020851 -0.028657 0.167055 0.034728 -0.573600 3.463935 0.703141 0.845894 15.570073 -0.634727 1.814210 -7.254441 -1.498237 -1.425351 1.226249 9.744989 -5.151316 -1.533349 80.336572 -0.099987 0.861455 -0.792740 13.480490 20.775928 -16.205809 -0.524924 0.736843 -11.152269 8.799167 -1.585627 -79.295929 -4.665845 5.227935 -1.753549 -4.440658 -0.313159 4.495949 3.691140 13.299469 1.537922 -3.891022 1.165785 0.274516 7.511202 -6.595323 -1.510457 0.018698 -0.193841 0.013703 6.910119 10.454438 -1.463958 1.028378 2.365503 0.323943 9.569175 -6.564873 0.570243 -0.006690 0.209654 -0.014276
120.905592 84.668896 -59.172835 -147.126925 -7.538226 -0.571182 -0.571542 3.676681 0.533194 -0.017567 0.101749 0.020719 -0.029244 0.169499 0.034497 -0.581603 3.489598 0.692922 0.812043 15.547278 -0.614830 1.744083 -7.297880 -1.449010 -1.420750 1.221801 9.743080 -5.114045 -1.485021 80.334372 -0.113928 0.861994 -0.811509 13.473435 20.848717 -16.201089 -0.431404 0.722749 -11.148333 8.643993 -1.564830 -79.327651 -4.644745 5.090112 -1.724459 -4.442972 -0.345239 4.486558 3.840423 13.274240 1.622219 -4.130474 1.187427 0.259401 7.563062 -6.600639 -1.542009 0.018318 -0.192786 0.011356 6.819312 10.348797 -1.439091 0.879775 2.534322 0.311906 9.717711 -6.627552 0.539296 -0.003475 0.206847 -0.012249
